Coordinates
version=1
nRows=26
nColumns=20
inDegrees=yes

Units are S.I. units (second, meters, Newtons, ...)
Angles are in degrees.

endheader
time	Th_rotX	Th_rotY	Th_rotZ	Th_transX	Th_transY	Th_transZ	Clav_rotZ_right	Clav_rotY_right	Clav_rotX_right	Scap_rotZ_right	Scap_rotY_right	Scap_rotX_right	Hum_rotZ_right	Hum_rotY_right	Hum_rotZZ_right	Elb_flex_right	Elb_ProSup_right	wrist_dev_r	wrist_flex_r
      0.00333333	      0.55903595	     -1.89221128	      2.93833777	      0.48474051	      1.41846105	     -0.42752553	     13.79802918	     19.62210129	     19.84424446	    -19.07396818	     -4.36582327	     23.31200948	      2.86482591	    -36.34682861	    -68.85677340	     15.60202006	     50.79948650	     62.36172278	    -13.28023317
      0.00666667	      0.55901550	     -1.89203507	      2.93853066	      0.48475716	      1.41846258	     -0.42752368	     13.79786056	     19.62215939	     19.84471559	    -19.07397528	     -4.36583110	     23.31210076	      2.86465094	    -36.34674604	    -68.85675507	     15.60203029	     50.79933336	     62.36170561	    -13.28018713
      0.01000000	      0.55907155	     -1.89183094	      2.93874090	      0.48477887	      1.41846370	     -0.42752358	     13.79768114	     19.62212731	     19.84518917	    -19.07394642	     -4.36588537	     23.31228368	      2.86450627	    -36.34657860	    -68.85673914	     15.60203594	     50.79919259	     62.36169441	    -13.28014035
      0.01333333	      0.55910472	     -1.89168611	      2.93885643	      0.48480057	      1.41846449	     -0.42752110	     13.79754897	     19.62215301	     19.84556067	    -19.07393255	     -4.36600215	     23.31236467	      2.86440150	    -36.34650075	    -68.85673328	     15.60199593	     50.79905236	     62.36168632	    -13.28009515
      0.01666667	      0.55921091	     -1.89153201	      2.93898711	      0.48482333	      1.41846505	     -0.42751877	     13.79740988	     19.62210323	     19.84593173	    -19.07390530	     -4.36615553	     23.31251562	      2.86432306	    -36.34635411	    -68.85674569	     15.60194813	     50.79892167	     62.36169016	    -13.28005325
      0.02000000	      0.55908490	     -1.89159129	      2.93883321	      0.48483199	      1.41846238	     -0.42750180	     13.79740750	     19.62239630	     19.84606207	    -19.07400806	     -4.36632951	     23.31219194	      2.86425722	    -36.34664637	    -68.85678378	     15.60179498	     50.79877309	     62.36167916	    -13.28001169
      0.02333333	      0.55923441	     -1.89141135	      2.93897670	      0.48486229	      1.41846769	     -0.42750533	     13.79725430	     19.62229979	     19.84642936	    -19.07395021	     -4.36653346	     23.31243157	      2.86421041	    -36.34642775	    -68.85679339	     15.60171812	     50.79864298	     62.36168644	    -13.27997145
      0.02666667	      0.55931448	     -1.89148231	      2.93883990	      0.48487527	      1.41845930	     -0.42749218	     13.79727599	     19.62240522	     19.84651130	    -19.07401648	     -4.36682403	     23.31222660	      2.86423348	    -36.34660489	    -68.85683246	     15.60153641	     50.79851122	     62.36168599	    -13.27993042
      0.03000000	      0.55946450	     -1.89136234	      2.93890340	      0.48490318	      1.41845709	     -0.42749002	     13.79716747	     19.62234013	     19.84679360	    -19.07398079	     -4.36705831	     23.31233878	      2.86421403	    -36.34650266	    -68.85685909	     15.60139453	     50.79837438	     62.36168790	    -13.27989067
      0.03333333	      0.55934000	     -1.89158089	      2.93854157	      0.48491291	      1.41845122	     -0.42747416	     13.79729128	     19.62273060	     19.84669615	    -19.07410411	     -4.36738033	     23.31180088	      2.86423983	    -36.34698999	    -68.85692292	     15.60113071	     50.79821379	     62.36167909	    -13.27985542
      0.03666667	      0.55945912	     -1.89148817	      2.93853843	      0.48494241	      1.41844331	     -0.42746966	     13.79719967	     19.62273420	     19.84694048	    -19.07408058	     -4.36759949	     23.31180357	      2.86420869	    -36.34698474	    -68.85694473	     15.60098497	     50.79807591	     62.36168627	    -13.27981784
      0.04000000	      0.55946419	     -1.89154164	      2.93836875	      0.48496192	      1.41843445	     -0.42745767	     13.79720219	     19.62293482	     19.84702641	    -19.07414960	     -4.36784357	     23.31151728	      2.86419817	    -36.34724152	    -68.85697140	     15.60080460	     50.79793414	     62.36169697	    -13.27978336
      0.04333333	      0.55961233	     -1.89144351	      2.93836595	      0.48499167	      1.41843160	     -0.42745247	     13.79709748	     19.62292508	     19.84725901	    -19.07415014	     -4.36807887	     23.31152893	      2.86418763	    -36.34722705	    -68.85699302	     15.60064845	     50.79779327	     62.36171284	    -13.27975111
      0.04666667	      0.55954829	     -1.89155131	      2.93810576	      0.48500997	      1.41842717	     -0.42743898	     13.79714601	     19.62321869	     19.84727284	    -19.07423073	     -4.36835216	     23.31113687	      2.86418716	    -36.34758879	    -68.85703506	     15.60043173	     50.79764879	     62.36172830	    -13.27971977
      0.05000000	      0.55964552	     -1.89144500	      2.93808645	      0.48504370	      1.41842193	     -0.42743165	     13.79703622	     19.62327223	     19.84751948	    -19.07421636	     -4.36853634	     23.31107338	      2.86413821	    -36.34765230	    -68.85707136	     15.60023145	     50.79750524	     62.36174361	    -13.27968765
      0.05333333	      0.55968684	     -1.89147743	      2.93793561	      0.48506596	      1.41841796	     -0.42742124	     13.79702811	     19.62342928	     19.84763110	    -19.07424563	     -4.36879221	     23.31085501	      2.86412646	    -36.34785355	    -68.85713433	     15.59998479	     50.79736264	     62.36176531	    -13.27965939
      0.05666667	      0.55979819	     -1.89153826	      2.93774381	      0.48508623	      1.41840667	     -0.42741236	     13.79703816	     19.62355068	     19.84768600	    -19.07430853	     -4.36909526	     23.31061665	      2.86415583	    -36.34807496	    -68.85717153	     15.59975192	     50.79722260	     62.36179085	    -13.27963152
      0.06000000	      0.55991661	     -1.89143987	      2.93770060	      0.48511624	      1.41840146	     -0.42740829	     13.79693993	     19.62358320	     19.84792487	    -19.07429231	     -4.36930923	     23.31059745	      2.86412180	    -36.34809735	    -68.85719282	     15.59958379	     50.79709464	     62.36183090	    -13.27960534
      0.06333333	      0.55995253	     -1.89147286	      2.93746308	      0.48513660	      1.41839028	     -0.42739213	     13.79692415	     19.62378455	     19.84797743	    -19.07437909	     -4.36956913	     23.31027114	      2.86413282	    -36.34840976	    -68.85723657	     15.59932816	     50.79695082	     62.36185952	    -13.27958047
      0.06666667	      0.56008598	     -1.89133887	      2.93739917	      0.48516827	      1.41838246	     -0.42738389	     13.79679232	     19.62381877	     19.84821798	    -19.07438161	     -4.36976265	     23.31021929	      2.86409392	    -36.34846837	    -68.85727237	     15.59911147	     50.79680337	     62.36189019	    -13.27955614
      0.07000000	      0.56014575	     -1.89130011	      2.93725514	      0.48519412	      1.41837979	     -0.42737789	     13.79673075	     19.62395552	     19.84837719	    -19.07440391	     -4.37000084	     23.31007591	      2.86407545	    -36.34860708	    -68.85732115	     15.59886972	     50.79665757	     62.36192454	    -13.27953421
      0.07333333	      0.56019896	     -1.89134619	      2.93701155	      0.48521394	      1.41837158	     -0.42736606	     13.79673395	     19.62415070	     19.84842836	    -19.07447527	     -4.37027854	     23.30977725	      2.86409571	    -36.34888536	    -68.85737046	     15.59860066	     50.79650947	     62.36196010	    -13.27951360
      0.07666667	      0.56011134	     -1.89134933	      2.93674797	      0.48524021	      1.41836644	     -0.42735320	     13.79669730	     19.62447570	     19.84852963	    -19.07453096	     -4.37046241	     23.30939906	      2.86403669	    -36.34924114	    -68.85742959	     15.59830600	     50.79633745	     62.36198442	    -13.27949460
      0.08000000	      0.56024070	     -1.89126987	      2.93661125	      0.48527352	      1.41835981	     -0.42734836	     13.79661526	     19.62455036	     19.84869577	    -19.07451914	     -4.37071290	     23.30928727	      2.86402647	    -36.34934910	    -68.85747933	     15.59802914	     50.79617855	     62.36202011	    -13.27947640
      0.08333333	      0.56051408	     -1.89101827	      2.93669690	      0.48530891	      1.41835504	     -0.42734806	     13.79641173	     19.62438224	     19.84907306	    -19.07445143	     -4.37090209	     23.30951851	      2.86398751	    -36.34912991	    -68.85750347	     15.59784497	     50.79605608	     62.36207431	    -13.27945405
      0.08666667	      0.56068264	     -1.89098264	      2.93652289	      0.48533232	      1.41835123	     -0.42734109	     13.79636276	     19.62442720	     19.84919433	    -19.07446479	     -4.37120951	     23.30942451	      2.86402035	    -36.34921525	    -68.85755982	     15.59757188	     50.79592866	     62.36212616	    -13.27943477
